<svg width="135" height="40" viewBox="0 0 135 40" fill="none" xmlns="http://www.w3.org/2000/svg">
    <rect x="5" y="10" width="110" height="5" fill="#ffffff"/>
    <rect x="120" y="5" width="5" height="5" fill="#ffffff"/>
    <rect x="125" y="10" width="5" height="5" fill="#ffffff"/>
    <rect x="130" y="15" width="5" height="5" fill="#ffffff"/>
    <rect x="115" y="15" width="15" height="10" fill="#ffffff"/>
    <rect x="115" y="35" width="5" height="5" fill="#8c8c8c"/>
    <rect x="120" y="30" width="5" height="5" fill="#8c8c8c"/>
    <rect x="125" y="25" width="5" height="5" fill="#8c8c8c"/>
    <rect x="130" y="20" width="5" height="5" fill="#8c8c8c"/>
    <rect x="0" y="10" width="5" height="5" fill="#ffffff"/>
    <rect x="5" y="25" width="110" height="5" fill="#8c8c8c"/>
    <rect x="115" y="25" width="5" height="10" fill="#ffffff"/>
    <rect y="15" width="5" height="10" fill="#ffffff"/>
    <rect x="115" width="5" height="15" fill="#ffffff"/>
    <rect x="120" y="10" width="5" height="20" fill="#ffffff"/>
    <rect x="5" y="15" width="125" height="10" fill="#ffffff"/>
</svg>
